# xmcd
#
# Track frame offsets:
#	150
#	15521
#	31417
#	48661
#	60624
#	76987
#	92367
#	108178
#	125412
#	140426
#	158714
#	177221
#	203865
#	220754
#	246295
#	261248
#
# Disc length: 3787 seconds
#
# Revision: 1
# Processed by: cddbd v1.5.2PL0 Copyright (c) Steve Scherf et al.
# Submitted via: audiograbber 1.82.02
#
DISCID=d30ec910
DTITLE=Юрий Шатунов - Запиши мой голос
DYEAR=2006
DGENRE=поп
TTITLE0=Запиши мой голос на кассету
TTITLE1=После выпускного
TTITLE2=Летние ночи
TTITLE3=Землю обойду
TTITLE4=Сколько можно
TTITLE5=Ты прости меня, прости
TTITLE6=Две минуты
TTITLE7=А помнишь... (посвящается 70-м годам)
TTITLE8=Рассвет для двоих
TTITLE9=Мой зайчик
TTITLE10=Розовый вечер
TTITLE11=Тающий снег
TTITLE12=Детство
TTITLE13=Белые розы
TTITLE14=Забудь
TTITLE15=Медленно уходит осень
EXTD=
EXTT0=
EXTT1=
EXTT2=
EXTT3=
EXTT4=
EXTT5=
EXTT6=
EXTT7=
EXTT8=
EXTT9=
EXTT10=
EXTT11=
EXTT12=
EXTT13=
EXTT14=
EXTT15=
PLAYORDER=
